<?xml version="1.0" encoding="UTF-8" standalone="no"?>
<!-- Created with Inkscape (http://www.inkscape.org/) -->

<svg
   xmlns:dc="http://purl.org/dc/elements/1.1/"
   xmlns:cc="http://creativecommons.org/ns#"
   xmlns:rdf="http://www.w3.org/1999/02/22-rdf-syntax-ns#"
   xmlns:svg="http://www.w3.org/2000/svg"
   xmlns="http://www.w3.org/2000/svg"
   xmlns:sodipodi="http://sodipodi.sourceforge.net/DTD/sodipodi-0.dtd"
   xmlns:inkscape="http://www.inkscape.org/namespaces/inkscape"
   width="210mm"
   height="297mm"
   viewBox="0 0 210 297"
   version="1.1"
   id="svg8"
   inkscape:version="0.92.4 (5da689c313, 2019-01-14)"
   sodipodi:docname="documentation.svg">
  <defs
     id="defs2" />
  <sodipodi:namedview
     id="base"
     pagecolor="#ffffff"
     bordercolor="#666666"
     borderopacity="1.0"
     inkscape:pageopacity="0.0"
     inkscape:pageshadow="2"
     inkscape:zoom="0.35"
     inkscape:cx="-64.285714"
     inkscape:cy="560"
     inkscape:document-units="mm"
     inkscape:current-layer="g894"
     showgrid="false"
     inkscape:window-width="1920"
     inkscape:window-height="1017"
     inkscape:window-x="-8"
     inkscape:window-y="-8"
     inkscape:window-maximized="1" />
  <metadata
     id="metadata5">
    <rdf:RDF>
      <cc:Work
         rdf:about="">
        <dc:format>image/svg+xml</dc:format>
        <dc:type
           rdf:resource="http://purl.org/dc/dcmitype/StillImage" />
        <dc:title></dc:title>
      </cc:Work>
    </rdf:RDF>
  </metadata>
  <g
     inkscape:label="Layer 1"
     inkscape:groupmode="layer"
     id="layer1">
    <g
       id="g894"
       transform="matrix(0.26458333,0,0,0.26458333,1.6171223,66.561479)">
      <path
         id="path815"
         transform="translate(-208.9778,-99.05999)"
         d="m 609.48783,100.59015 -25.44631,6.56209 -313.50417,80.84646 -25.44635,6.56209 a 48.17927,48.17927 0 0 0 -34.583,58.61786 l 110.341,427.87741 a 48.17924,48.17924 0 0 0 58.61776,34.58317 l 0.0657,-0.0169 364.26536,-93.93675 0.0657,-0.0169 a 48.17923,48.17923 0 0 0 34.58309,-58.6178 l -110.341,-427.87741 a 48.17928,48.17928 0 0 0 -58.61782,-34.58322 z"
         inkscape:connector-curvature="0"
         style="fill:#f2f2f2" />
      <path
         id="path817"
         transform="translate(-208.9778,-99.05999)"
         d="m 612.94784,114.00532 -30.13945,7.77236 -304.11884,78.42617 -30.139,7.77223 a 34.30949,34.30949 0 0 0 -24.6275,41.74308 l 110.341,427.87741 a 34.30946,34.30946 0 0 0 41.7431,24.62736 l 0.0657,-0.0169 364.26536,-93.93674 0.0662,-0.0171 a 34.30935,34.30935 0 0 0 24.627,-41.7429 l -110.341,-427.87741 a 34.30938,34.30938 0 0 0 -41.74258,-24.62754 z"
         inkscape:connector-curvature="0"
         style="fill:#ffffff" />
      <path
         id="path819"
         transform="translate(-208.9778,-99.05999)"
         d="m 590.19,252.56327 -184.273,47.52032 a 8.014112,8.014112 0 0 1 -4.00241,-15.52046 l 184.273,-47.52033 a 8.01412,8.01412 0 0 1 4.00241,15.52047 z"
         inkscape:connector-curvature="0"
         style="fill:#f2f2f2" />
      <path
         id="path821"
         transform="translate(-208.9778,-99.05999)"
         d="m 628.955,270.49906 -216.284,55.77531 a 8.014112,8.014112 0 1 1 -4.00241,-15.52046 l 216.284,-55.77531 a 8.0141132,8.0141132 0 0 1 4.00242,15.52046 z"
         inkscape:connector-curvature="0"
         style="fill:#f2f2f2" />
      <path
         id="path823"
         transform="translate(-208.9778,-99.05999)"
         d="m 620.45825,369.93676 -184.273,47.52032 a 8.0141132,8.0141132 0 1 1 -4.00242,-15.52046 l 184.273,-47.52032 a 8.014112,8.014112 0 1 1 4.00241,15.52046 z"
         inkscape:connector-curvature="0"
         style="fill:#f2f2f2" />
      <path
         id="path825"
         transform="translate(-208.9778,-99.05999)"
         d="m 659.22329,387.87255 -216.284,55.77531 a 8.0141132,8.0141132 0 1 1 -4.00242,-15.52046 l 216.284,-55.77531 a 8.0141132,8.0141132 0 0 1 4.00242,15.52046 z"
         inkscape:connector-curvature="0"
         style="fill:#f2f2f2" />
      <path
         id="path827"
         transform="translate(-208.9778,-99.05999)"
         d="m 650.72653,487.31025 -184.273,47.52033 a 8.01412,8.01412 0 0 1 -4.00242,-15.52047 l 184.273,-47.52032 a 8.0141132,8.0141132 0 0 1 4.00242,15.52046 z"
         inkscape:connector-curvature="0"
         style="fill:#f2f2f2" />
      <path
         id="path829"
         transform="translate(-208.9778,-99.05999)"
         d="m 689.49156,505.246 -216.284,55.77532 a 8.01412,8.01412 0 1 1 -4.00241,-15.52047 l 216.284,-55.77531 a 8.0141132,8.0141132 0 0 1 4.00242,15.52046 z"
         inkscape:connector-curvature="0"
         style="fill:#f2f2f2" />
      <path
         id="path831"
         transform="translate(-208.9778,-99.05999)"
         d="m 374.45884,348.80871 -65.21246,16.817 a 3.847,3.847 0 0 1 -4.68062,-2.76146 L 289.5963,304.81607 a 3.847,3.847 0 0 1 2.76145,-4.68061 l 65.21247,-16.817 a 3.847,3.847 0 0 1 4.68061,2.76145 l 14.96947,58.04817 a 3.847,3.847 0 0 1 -2.76146,4.68063 z"
         inkscape:connector-curvature="0"
         style="fill:#e6e6e6" />
      <path
         id="path833"
         transform="translate(-208.9778,-99.05999)"
         d="m 404.72712,466.1822 -65.21247,16.817 a 3.847,3.847 0 0 1 -4.68062,-2.76146 L 319.86457,422.18958 A 3.847,3.847 0 0 1 322.626,417.509 l 65.21246,-16.817 a 3.847,3.847 0 0 1 4.68062,2.76145 l 14.96946,58.04817 a 3.847,3.847 0 0 1 -2.76142,4.68058 z"
         inkscape:connector-curvature="0"
         style="fill:#e6e6e6" />
      <path
         id="path835"
         transform="translate(-208.9778,-99.05999)"
         d="m 434.99539,583.55569 -65.21246,16.817 a 3.847,3.847 0 0 1 -4.68062,-2.76145 l -14.96946,-58.04817 a 3.847,3.847 0 0 1 2.76145,-4.68062 l 65.21247,-16.817 a 3.847,3.847 0 0 1 4.68061,2.76146 l 14.96947,58.04816 a 3.847,3.847 0 0 1 -2.76146,4.68062 z"
         inkscape:connector-curvature="0"
         style="fill:#e6e6e6" />
      <path
         id="path837"
         transform="translate(-208.9778,-99.05999)"
         d="M 863.63647,209.0517 H 487.31811 a 48.17928,48.17928 0 0 0 -48.125,48.12512 v 441.87579 a 48.17924,48.17924 0 0 0 48.125,48.12507 h 376.31836 a 48.17924,48.17924 0 0 0 48.125,-48.12507 V 257.17682 a 48.17928,48.17928 0 0 0 -48.125,-48.12512 z"
         inkscape:connector-curvature="0"
         style="fill:#e6e6e6" />
      <path
         id="path839"
         transform="translate(-208.9778,-99.05999)"
         d="M 863.637,222.90589 H 487.31811 a 34.30948,34.30948 0 0 0 -34.271,34.27093 v 441.87579 a 34.30947,34.30947 0 0 0 34.271,34.27088 H 863.637 a 34.30936,34.30936 0 0 0 34.27051,-34.27088 V 257.17682 A 34.30937,34.30937 0 0 0 863.637,222.90589 Z"
         inkscape:connector-curvature="0"
         style="fill:#ffffff" />
      <path
         id="path845"
         transform="translate(-208.9778,-99.05999)"
         d="M 807.00068,465.71551 H 616.699 a 8.01412,8.01412 0 1 1 0,-16.02823 h 190.30168 a 8.01412,8.01412 0 0 1 0,16.02823 z"
         inkscape:connector-curvature="0"
         style="fill:#e6e6e6" />
      <path
         id="path847"
         transform="translate(-208.9778,-99.05999)"
         d="M 840.05889,492.76314 H 616.699 a 8.01412,8.01412 0 1 1 0,-16.02823 h 223.35989 a 8.014115,8.014115 0 1 1 0,16.02823 z"
         inkscape:connector-curvature="0"
         style="fill:#e6e6e6" />
      <path
         id="path849"
         transform="translate(-208.9778,-99.05999)"
         d="M 807.00068,586.929 H 616.699 a 8.01412,8.01412 0 1 1 0,-16.02823 h 190.30168 a 8.014115,8.014115 0 0 1 0,16.02823 z"
         inkscape:connector-curvature="0"
         style="fill:#e6e6e6" />
      <path
         id="path851"
         transform="translate(-208.9778,-99.05999)"
         d="M 840.05889,613.97661 H 616.699 a 8.01412,8.01412 0 1 1 0,-16.02823 h 223.35989 a 8.01412,8.01412 0 1 1 0,16.02823 z"
         inkscape:connector-curvature="0"
         style="fill:#e6e6e6" />
      <path
         id="path853"
         transform="translate(-208.9778,-99.05999)"
         d="m 574.07028,505.04162 h -67.34594 a 3.847,3.847 0 0 1 -3.84278,-3.84278 v -59.94726 a 3.847,3.847 0 0 1 3.84278,-3.84278 h 67.34594 a 3.847,3.847 0 0 1 3.84278,3.84278 v 59.94726 a 3.847,3.847 0 0 1 -3.84278,3.84278 z"
         inkscape:connector-curvature="0"
         style="fill:#e6e6e6" />
      <path
         id="path855"
         transform="translate(-208.9778,-99.05999)"
         d="m 574.07028,626.25509 h -67.34594 a 3.847,3.847 0 0 1 -3.84278,-3.84278 v -59.94726 a 3.847,3.847 0 0 1 3.84278,-3.84278 h 67.34594 a 3.847,3.847 0 0 1 3.84278,3.84278 v 59.94726 a 3.847,3.847 0 0 1 -3.84278,3.84278 z"
         inkscape:connector-curvature="0"
         style="fill:#e6e6e6" />
      <path
         id="path857"
         transform="translate(-208.9778,-99.05999)"
         d="M 807.21185,330.781 H 666.91017 a 8.014115,8.014115 0 0 1 0,-16.02823 h 140.30168 a 8.014115,8.014115 0 0 1 0,16.02823 z"
         inkscape:connector-curvature="0"
         style="fill:#cccccc" />
      <path
         id="path859"
         transform="translate(-208.9778,-99.05999)"
         d="m 840.27007,357.82862 h -173.3599 a 8.01411,8.01411 0 1 1 0,-16.02822 h 173.3599 a 8.01411,8.01411 0 0 1 0,16.02822 z"
         inkscape:connector-curvature="0"
         style="fill:#cccccc" />
      <path
         id="path861"
         transform="translate(-208.9778,-99.05999)"
         d="M 635.85911,390.6071 H 506.51316 a 3.847,3.847 0 0 1 -3.84277,-3.84277 V 285.81706 a 3.847,3.847 0 0 1 3.84277,-3.84277 h 129.34595 a 3.847,3.847 0 0 1 3.84277,3.84277 v 100.94727 a 3.847,3.847 0 0 1 -3.84277,3.84277 z"
         inkscape:connector-curvature="0"
         style="fill:#0068b4" />
    </g>
  </g>
</svg>
