<?xml version="1.0" encoding="utf-8"?>
<!-- Generator: Adobe Illustrator 26.3.1, SVG Export Plug-In . SVG Version: 6.00 Build 0)  -->
<svg version="1.1" xmlns="http://www.w3.org/2000/svg" xmlns:xlink="http://www.w3.org/1999/xlink" x="0px" y="0px"
	 viewBox="0 0 149.95 50.46" style="enable-background:new 0 0 149.95 50.46;" xml:space="preserve">
<style type="text/css">
	.st0{fill:none;}
	.st1{fill:#FFFFFF;}
</style>
<g id="Schutzraum">
	<rect class="st0" width="149.95" height="50.46"/>
</g>
<g id="Wort-_x2F_Bildmarke">
	<g>
		<path class="st1" d="M8.11,12c-0.27,0-0.49-0.22-0.49-0.49v-1.09c0-0.27,0.22-0.49,0.49-0.49h4.93c0.27,0,0.49,0.22,0.49,0.49
			v9.35c0,0.15,0.1,0.24,0.24,0.24h3.08c0.27,0,0.49,0.22,0.49,0.49v1.09c0,0.27-0.22,0.49-0.49,0.49H7.87
			c-0.27,0-0.49-0.22-0.49-0.49v-1.09c0-0.27,0.22-0.49,0.49-0.49h3.18c0.15,0,0.24-0.1,0.24-0.24v-7.53c0-0.15-0.1-0.24-0.24-0.24
			H8.11z M13.6,6.98c0,0.22-0.17,0.39-0.39,0.39h-1.65c-0.22,0-0.39-0.17-0.39-0.39V5.3c0-0.19,0.17-0.39,0.39-0.39h1.65
			c0.22,0,0.39,0.19,0.39,0.39V6.98z"/>
		<path class="st1" d="M20.19,17.64h1.21c0.27,0,0.49,0.22,0.49,0.49c0,1.77,1.51,2.11,2.62,2.11c1.31,0,2.6-0.34,2.6-1.8
			c0-1.07-1.19-1.38-2.6-1.68c-1.99-0.41-4.4-0.9-4.4-3.55c0-2.19,2.19-3.52,4.4-3.52c2.19,0,4.32,1.34,4.32,3.64
			c0,0.27-0.22,0.49-0.49,0.49h-1.21c-0.27,0-0.49-0.22-0.49-0.49c0-0.85-0.63-1.58-2.14-1.58c-1.51,0-2.14,0.75-2.14,1.46
			c0,0.87,0.95,1.14,2.14,1.36c2.04,0.36,4.79,0.8,4.79,3.86c0,2.6-2.26,3.89-4.79,3.89c-2.43,0-4.81-1.21-4.81-4.2
			C19.7,17.86,19.92,17.64,20.19,17.64z"/>
		<path class="st1" d="M35.68,13.17c0,0.41-0.34,0.41-0.56,0.41h-1.09c-0.37,0-0.49-0.19-0.49-0.49c0-2.26,2.33-3.4,4.4-3.4
			c2.38,0,4.45,1.19,4.45,3.89v8.02c0,0.27-0.22,0.49-0.49,0.49h-0.83c-0.14,0-0.24-0.05-0.34-0.17c-0.14-0.19-0.24-0.51-0.48-0.51
			c-0.44,0-1.04,0.92-2.84,0.92c-2.99,0-4.42-1.82-4.42-3.89c0-2.02,1.46-3.69,4.01-3.69h2.96c0.15,0,0.24-0.1,0.24-0.24v-0.8
			c0-1.31-1.02-1.92-2.26-1.92C37.14,11.79,35.68,12,35.68,13.17z M37,16.74c-1.24,0-1.82,0.66-1.82,1.68
			c0,1.19,0.75,1.89,2.16,1.89c2.23,0,3.06-0.9,3.06-2.55v-0.78c0-0.15-0.1-0.24-0.24-0.24H37z"/>
		<path class="st1" d="M46.91,17.64h1.21c0.27,0,0.48,0.22,0.48,0.49c0,1.77,1.51,2.11,2.63,2.11c1.31,0,2.6-0.34,2.6-1.8
			c0-1.07-1.19-1.38-2.6-1.68c-1.99-0.41-4.4-0.9-4.4-3.55c0-2.19,2.19-3.52,4.4-3.52c2.19,0,4.32,1.34,4.32,3.64
			c0,0.27-0.22,0.49-0.48,0.49h-1.21c-0.27,0-0.49-0.22-0.49-0.49c0-0.85-0.63-1.58-2.14-1.58c-1.51,0-2.14,0.75-2.14,1.46
			c0,0.87,0.95,1.14,2.14,1.36c2.04,0.36,4.79,0.8,4.79,3.86c0,2.6-2.26,3.89-4.79,3.89c-2.43,0-4.81-1.21-4.81-4.2
			C46.42,17.86,46.64,17.64,46.91,17.64z"/>
	</g>
	<g>
		<path class="st1" d="M55.09,26.99c0.27,0,0.49,0.22,0.49,0.49v1.09c0,0.27-0.22,0.49-0.49,0.49H7.88c-0.27,0-0.49-0.22-0.49-0.49
			v-1.09c0-0.27,0.22-0.49,0.49-0.49H55.09z"/>
	</g>
	<g>
		<path class="st1" d="M55.09,40.93c0.27,0,0.49,0.22,0.49,0.48v1.09c0,0.27-0.22,0.49-0.49,0.49H25c-0.27,0-0.49-0.22-0.49-0.49
			v-1.09c0-0.27,0.22-0.48,0.49-0.48H55.09z"/>
	</g>
	<g>
		<path class="st1" d="M24.03,33.96c0.27,0,0.49,0.22,0.49,0.48v1.09c0,0.27-0.22,0.49-0.49,0.49H7.87c-0.27,0-0.49-0.22-0.49-0.49
			v-1.09c0-0.27,0.22-0.48,0.49-0.48H24.03z"/>
	</g>
</g>
<g id="Text">
	<g>
		<path class="st1" d="M60.87,14.16c0,0.04,0.03,0.06,0.06,0.06h1.59c0.07,0,0.13,0.06,0.13,0.13v0.16c0,0.07-0.06,0.13-0.13,0.13
			h-1.94c-0.07,0-0.13-0.06-0.13-0.13v-4.29c0-0.07,0.06-0.13,0.13-0.13h0.16c0.07,0,0.13,0.06,0.13,0.13V14.16z"/>
		<path class="st1" d="M63.59,13.18c-0.04,0-0.06,0.03-0.06,0.06c0,0.62,0.29,1.09,0.96,1.09c0.5,0,0.77-0.31,0.87-0.61
			c0.03-0.08,0.09-0.11,0.15-0.11h0.13c0.07,0,0.12,0.04,0.11,0.13c-0.08,0.57-0.58,0.98-1.26,0.98c-0.78,0-1.28-0.55-1.33-1.23
			c-0.02-0.26-0.02-0.65,0-0.91c0.05-0.68,0.55-1.23,1.33-1.23c0.73,0,1.3,0.59,1.3,1.3v0.42c0,0.07-0.06,0.13-0.13,0.13H63.59z
			 M63.54,12.75c0,0.04,0.03,0.06,0.06,0.06h1.76c0.04,0,0.06-0.03,0.06-0.06c0-0.66-0.4-1.03-0.94-1.03
			C63.91,11.71,63.54,12.08,63.54,12.75z"/>
		<path class="st1" d="M67.08,10.5c0,0.06-0.05,0.1-0.1,0.1h-0.34c-0.06,0-0.1-0.05-0.1-0.1v-0.34c0-0.05,0.04-0.1,0.1-0.1h0.34
			c0.06,0,0.1,0.05,0.1,0.1V10.5z M67.01,14.52c0,0.07-0.04,0.13-0.13,0.13h-0.13c-0.09,0-0.13-0.06-0.13-0.13v-2.99
			c0-0.07,0.04-0.13,0.13-0.13h0.13c0.09,0,0.13,0.06,0.13,0.13V14.52z"/>
		<path class="st1" d="M68.48,14.5c-0.07,0-0.12,0.06-0.16,0.1c-0.03,0.03-0.05,0.05-0.09,0.05h-0.1c-0.07,0-0.13-0.06-0.13-0.13
			v-4.34c0-0.07,0.06-0.13,0.13-0.13h0.12c0.07,0,0.13,0.06,0.13,0.13v1.15c0,0.12,0.07,0.16,0.16,0.16c0.13,0,0.27-0.16,0.68-0.16
			c0.68,0,1.18,0.55,1.23,1.23c0.02,0.26,0.02,0.65,0,0.91c-0.05,0.68-0.55,1.23-1.23,1.23C68.74,14.71,68.67,14.5,68.48,14.5z
			 M68.39,13.48c0.03,0.34,0.22,0.85,0.8,0.85c0.64,0,0.83-0.51,0.87-0.85c0.03-0.27,0.03-0.64,0-0.91
			c-0.04-0.34-0.24-0.85-0.87-0.85c-0.58,0-0.77,0.51-0.8,0.85C68.36,12.83,68.36,13.21,68.39,13.48z"/>
		<path class="st1" d="M73.73,14.52c0,0.07-0.06,0.13-0.13,0.13h-0.12c-0.07,0-0.13-0.06-0.13-0.13v-2.05
			c0-0.55-0.36-0.75-0.83-0.75c-0.47,0-0.83,0.31-0.83,0.71v2.09c0,0.07-0.06,0.13-0.13,0.13h-0.12c-0.07,0-0.13-0.06-0.13-0.13
			v-2.99c0-0.07,0.06-0.13,0.13-0.13h0.1c0.04,0,0.07,0.02,0.09,0.05c0.04,0.05,0.08,0.1,0.16,0.1c0.19,0,0.29-0.21,0.77-0.21
			c0.68,0,1.16,0.39,1.16,1.13V14.52z"/>
		<path class="st1" d="M75.08,10.5c0,0.06-0.05,0.1-0.1,0.1h-0.34c-0.06,0-0.1-0.05-0.1-0.1v-0.34c0-0.05,0.04-0.1,0.1-0.1h0.34
			c0.06,0,0.1,0.05,0.1,0.1V10.5z M75.01,14.52c0,0.07-0.04,0.13-0.13,0.13h-0.13c-0.09,0-0.13-0.06-0.13-0.13v-2.99
			c0-0.07,0.04-0.13,0.13-0.13h0.13c0.09,0,0.13,0.06,0.13,0.13V14.52z"/>
		<path class="st1" d="M77.81,11.84c0.03-0.03,0.01-0.06-0.03-0.06h-1.75c-0.07,0-0.13-0.06-0.13-0.13v-0.12
			c0-0.07,0.06-0.13,0.13-0.13h2.14c0.07,0,0.13,0.06,0.13,0.13v0.19c0,0.12-0.07,0.19-0.13,0.27l-1.85,2.22
			c-0.03,0.03-0.01,0.06,0.03,0.06h1.88c0.07,0,0.13,0.06,0.13,0.13v0.12c0,0.07-0.06,0.13-0.13,0.13h-2.28
			c-0.07,0-0.13-0.06-0.13-0.13v-0.2c0-0.08,0.01-0.11,0.08-0.2L77.81,11.84z"/>
		<path class="st1" d="M81.05,12.67c0.07,0,0.13,0.06,0.13,0.13v0.23c0,0.07-0.06,0.13-0.13,0.13h-1.77c-0.07,0-0.13-0.06-0.13-0.13
			V12.8c0-0.07,0.06-0.13,0.13-0.13H81.05z"/>
		<path class="st1" d="M82.54,14.52c0,0.07-0.06,0.13-0.13,0.13h-0.16c-0.07,0-0.13-0.06-0.13-0.13v-4.29
			c0-0.07,0.06-0.13,0.13-0.13h0.16c0.07,0,0.13,0.06,0.13,0.13V14.52z"/>
		<path class="st1" d="M85.83,14.52c0,0.07-0.06,0.13-0.13,0.13h-0.12c-0.07,0-0.13-0.06-0.13-0.13v-2.05
			c0-0.55-0.36-0.75-0.83-0.75c-0.47,0-0.83,0.31-0.83,0.71v2.09c0,0.07-0.06,0.13-0.13,0.13h-0.12c-0.07,0-0.13-0.06-0.13-0.13
			v-2.99c0-0.07,0.06-0.13,0.13-0.13h0.1c0.04,0,0.07,0.02,0.09,0.05c0.04,0.05,0.08,0.1,0.16,0.1c0.19,0,0.29-0.21,0.77-0.21
			c0.68,0,1.16,0.39,1.16,1.13V14.52z"/>
		<path class="st1" d="M88.68,12.44h-0.12c-0.07,0-0.13-0.04-0.13-0.14c0-0.32-0.29-0.6-0.74-0.6c-0.46,0-0.75,0.26-0.75,0.53
			c0,0.36,0.4,0.43,0.72,0.49c0.55,0.1,1.28,0.27,1.28,0.99c0,0.55-0.49,1.01-1.25,1.01c-0.65,0-1.25-0.39-1.25-1.04v-0.08
			c0-0.07,0.06-0.13,0.13-0.13h0.12c0.07,0,0.13,0.06,0.13,0.13v0.08c0,0.39,0.39,0.66,0.87,0.66c0.53,0,0.86-0.28,0.86-0.63
			c0-0.41-0.5-0.54-0.9-0.6c-0.57-0.08-1.11-0.28-1.11-0.88c0-0.51,0.55-0.9,1.14-0.9c0.58,0,1.12,0.36,1.12,0.97
			C88.81,12.4,88.75,12.44,88.68,12.44z"/>
		<path class="st1" d="M91.24,11.43c0.07,0,0.13,0.06,0.13,0.13v0.12c0,0.07-0.06,0.13-0.13,0.13h-0.82c-0.04,0-0.07,0.03-0.07,0.06
			v1.73c0,0.46,0.16,0.68,0.62,0.68h0.33c0.07,0,0.13,0.06,0.13,0.13v0.1c0,0.07-0.06,0.13-0.13,0.13h-0.33
			c-0.68,0-1.01-0.29-1.01-1.04v-1.73c0-0.04-0.03-0.06-0.06-0.06h-0.53c-0.07,0-0.13-0.06-0.13-0.13v-0.12
			c0-0.07,0.06-0.13,0.13-0.13h0.53c0.04,0,0.06-0.03,0.06-0.07v-1.01c0-0.07,0.06-0.13,0.13-0.13h0.13c0.07,0,0.13,0.06,0.13,0.13
			v1.01c0,0.04,0.03,0.07,0.07,0.07H91.24z"/>
		<path class="st1" d="M92.58,10.5c0,0.06-0.05,0.1-0.1,0.1h-0.34c-0.06,0-0.1-0.05-0.1-0.1v-0.34c0-0.05,0.04-0.1,0.1-0.1h0.34
			c0.06,0,0.1,0.05,0.1,0.1V10.5z M92.51,14.52c0,0.07-0.04,0.13-0.13,0.13h-0.13c-0.09,0-0.13-0.06-0.13-0.13v-2.99
			c0-0.07,0.04-0.13,0.13-0.13h0.13c0.09,0,0.13,0.06,0.13,0.13V14.52z"/>
		<path class="st1" d="M95.1,11.43c0.07,0,0.13,0.06,0.13,0.13v0.12c0,0.07-0.06,0.13-0.13,0.13h-0.82c-0.04,0-0.06,0.03-0.06,0.06
			v1.73c0,0.46,0.16,0.68,0.62,0.68h0.33c0.07,0,0.13,0.06,0.13,0.13v0.1c0,0.07-0.06,0.13-0.13,0.13h-0.33
			c-0.68,0-1.01-0.29-1.01-1.04v-1.73c0-0.04-0.03-0.06-0.06-0.06h-0.53c-0.07,0-0.13-0.06-0.13-0.13v-0.12
			c0-0.07,0.06-0.13,0.13-0.13h0.53c0.04,0,0.06-0.03,0.06-0.07v-1.01c0-0.07,0.06-0.13,0.13-0.13h0.13c0.07,0,0.13,0.06,0.13,0.13
			v1.01c0,0.04,0.03,0.07,0.06,0.07H95.1z"/>
		<path class="st1" d="M95.83,11.52c0-0.07,0.06-0.13,0.13-0.13h0.12c0.07,0,0.13,0.06,0.13,0.13v2.05c0,0.55,0.36,0.75,0.83,0.75
			c0.47,0,0.83-0.31,0.83-0.72v-2.09c0-0.07,0.06-0.13,0.13-0.13h0.12c0.07,0,0.13,0.06,0.13,0.13v2.99c0,0.07-0.06,0.13-0.13,0.13
			h-0.1c-0.04,0-0.07-0.02-0.09-0.05c-0.04-0.05-0.08-0.1-0.16-0.1c-0.19,0-0.29,0.21-0.77,0.21c-0.68,0-1.16-0.39-1.16-1.13V11.52z
			"/>
		<path class="st1" d="M100.67,11.43c0.07,0,0.13,0.06,0.13,0.13v0.12c0,0.07-0.06,0.13-0.13,0.13h-0.82
			c-0.04,0-0.06,0.03-0.06,0.06v1.73c0,0.46,0.16,0.68,0.62,0.68h0.33c0.07,0,0.13,0.06,0.13,0.13v0.1c0,0.07-0.06,0.13-0.13,0.13
			h-0.33c-0.68,0-1.01-0.29-1.01-1.04v-1.73c0-0.04-0.03-0.06-0.06-0.06H98.8c-0.07,0-0.13-0.06-0.13-0.13v-0.12
			c0-0.07,0.06-0.13,0.13-0.13h0.53c0.04,0,0.06-0.03,0.06-0.07v-1.01c0-0.07,0.06-0.13,0.13-0.13h0.13c0.07,0,0.13,0.06,0.13,0.13
			v1.01c0,0.04,0.03,0.07,0.06,0.07H100.67z"/>
		<path class="st1" d="M104.5,10.41c-0.49,0-0.72,0.4-0.72,0.85v0.1c0,0.04,0.03,0.07,0.07,0.07h0.74c0.07,0,0.13,0.06,0.13,0.13
			v0.12c0,0.07-0.06,0.13-0.13,0.13h-0.74c-0.04,0-0.07,0.03-0.07,0.06v2.64c0,0.07-0.06,0.13-0.13,0.13h-0.13
			c-0.07,0-0.13-0.06-0.13-0.13v-2.64c0-0.04-0.03-0.06-0.07-0.06h-0.57c-0.07,0-0.13-0.06-0.13-0.13v-0.12
			c0-0.07,0.06-0.13,0.13-0.13h0.57c0.04,0,0.07-0.03,0.07-0.07v-0.1c0-0.73,0.46-1.22,1.11-1.22h0.03c0.07,0,0.13,0.06,0.13,0.13
			v0.1c0,0.07-0.06,0.13-0.13,0.13H104.5z"/>
		<path class="st1" d="M105.25,11.52c0-0.07,0.06-0.13,0.13-0.13h0.12c0.07,0,0.13,0.06,0.13,0.13v2.05c0,0.55,0.36,0.75,0.83,0.75
			c0.47,0,0.83-0.31,0.83-0.72v-2.09c0-0.07,0.06-0.13,0.13-0.13h0.12c0.07,0,0.13,0.06,0.13,0.13v2.99c0,0.07-0.06,0.13-0.13,0.13
			h-0.1c-0.04,0-0.07-0.02-0.09-0.05c-0.04-0.05-0.08-0.1-0.16-0.1c-0.19,0-0.29,0.21-0.77,0.21c-0.68,0-1.16-0.39-1.16-1.13V11.52z
			 M106.17,10.5c0,0.06-0.05,0.1-0.1,0.1h-0.34c-0.06,0-0.1-0.05-0.1-0.1v-0.34c0-0.05,0.05-0.1,0.1-0.1h0.34
			c0.06,0,0.1,0.05,0.1,0.1V10.5z M107.28,10.5c0,0.06-0.05,0.1-0.1,0.1h-0.34c-0.06,0-0.1-0.05-0.1-0.1v-0.34
			c0-0.05,0.04-0.1,0.1-0.1h0.34c0.06,0,0.1,0.05,0.1,0.1V10.5z"/>
		<path class="st1" d="M109.84,11.77c-0.48,0-1.01,0.24-1.01,1.12v1.63c0,0.07-0.06,0.13-0.13,0.13h-0.12
			c-0.07,0-0.13-0.06-0.13-0.13v-2.99c0-0.07,0.06-0.13,0.13-0.13h0.08c0.07,0,0.11,0.04,0.13,0.13c0.02,0.08,0.02,0.23,0.12,0.23
			c0.17,0,0.22-0.36,0.94-0.36h0.01c0.07,0,0.13,0.06,0.13,0.13v0.12c0,0.07-0.06,0.13-0.13,0.13H109.84z"/>
		<path class="st1" d="M114.16,13.45c-0.02-0.06-0.07-0.09-0.12-0.09h-1.34c-0.06,0-0.1,0.03-0.12,0.09l-0.32,1.1
			c-0.01,0.06-0.07,0.1-0.12,0.1h-0.16c-0.1,0-0.15-0.07-0.13-0.13l1.24-4.32c0.01-0.06,0.07-0.1,0.12-0.1h0.33
			c0.06,0,0.11,0.04,0.12,0.1l1.24,4.32c0.01,0.06-0.03,0.13-0.13,0.13h-0.16c-0.06,0-0.11-0.04-0.12-0.1L114.16,13.45z
			 M113.99,12.88l-0.59-2.21c-0.01-0.03-0.01-0.04-0.03-0.04h-0.01c-0.01,0-0.02,0.01-0.03,0.04l-0.59,2.21
			c-0.01,0.05,0.01,0.07,0.05,0.07h1.14C113.98,12.96,114,12.94,113.99,12.88z"/>
		<path class="st1" d="M118.05,14.52c0,0.07-0.06,0.13-0.13,0.13h-0.12c-0.07,0-0.13-0.06-0.13-0.13v-2.05
			c0-0.55-0.36-0.75-0.83-0.75c-0.47,0-0.83,0.31-0.83,0.71v2.09c0,0.07-0.06,0.13-0.13,0.13h-0.12c-0.07,0-0.13-0.06-0.13-0.13
			v-2.99c0-0.07,0.06-0.13,0.13-0.13h0.1c0.04,0,0.07,0.02,0.09,0.05c0.04,0.05,0.08,0.1,0.16,0.1c0.19,0,0.29-0.21,0.77-0.21
			c0.68,0,1.16,0.39,1.16,1.13V14.52z"/>
		<path class="st1" d="M119.24,12.26c0,0.11-0.09,0.11-0.15,0.11H119c-0.1,0-0.13-0.05-0.13-0.13c0-0.6,0.58-0.91,1.13-0.91
			c0.64,0,1.17,0.34,1.17,1.08v2.11c0,0.07-0.06,0.13-0.13,0.13h-0.06c-0.04,0-0.07-0.01-0.09-0.05c-0.03-0.05-0.04-0.14-0.13-0.14
			c-0.12,0-0.38,0.25-0.86,0.25c-0.8,0-1.18-0.49-1.18-1.04c0-0.54,0.39-0.95,1.07-0.95h0.93c0.04,0,0.07-0.03,0.07-0.07V12.4
			c0-0.42-0.33-0.71-0.79-0.71C119.61,11.69,119.24,11.92,119.24,12.26z M119.8,13.08c-0.36,0-0.69,0.2-0.69,0.59
			c0,0.46,0.36,0.68,0.77,0.68c0.6,0,0.94-0.29,0.94-0.81v-0.39c0-0.04-0.03-0.07-0.07-0.07H119.8z"/>
		<path class="st1" d="M122.49,14.52c0,0.07-0.06,0.13-0.13,0.13h-0.13c-0.07,0-0.13-0.06-0.13-0.13v-4.34
			c0-0.07,0.06-0.13,0.13-0.13h0.13c0.07,0,0.13,0.06,0.13,0.13V14.52z"/>
		<path class="st1" d="M124.58,13.88c0.01,0.03,0.04,0.03,0.05,0l0.87-2.39c0.03-0.07,0.07-0.1,0.12-0.1h0.18
			c0.1,0,0.15,0.08,0.12,0.15l-1.65,4.3c-0.03,0.07-0.07,0.1-0.12,0.1h-0.14c-0.1,0-0.15-0.08-0.12-0.15l0.48-1.31
			c0.01-0.03,0.02-0.05,0.01-0.08l-1.23-2.86c-0.03-0.07,0.02-0.15,0.12-0.15h0.18c0.06,0,0.1,0.03,0.12,0.1L124.58,13.88z"/>
		<path class="st1" d="M128.33,11.43c0.07,0,0.13,0.06,0.13,0.13v0.12c0,0.07-0.06,0.13-0.13,0.13h-0.82
			c-0.04,0-0.06,0.03-0.06,0.06v1.73c0,0.46,0.16,0.68,0.62,0.68h0.33c0.07,0,0.13,0.06,0.13,0.13v0.1c0,0.07-0.06,0.13-0.13,0.13
			h-0.33c-0.68,0-1.01-0.29-1.01-1.04v-1.73c0-0.04-0.03-0.06-0.06-0.06h-0.53c-0.07,0-0.13-0.06-0.13-0.13v-0.12
			c0-0.07,0.06-0.13,0.13-0.13h0.53c0.04,0,0.06-0.03,0.06-0.07v-1.01c0-0.07,0.06-0.13,0.13-0.13h0.13c0.07,0,0.13,0.06,0.13,0.13
			v1.01c0,0.04,0.03,0.07,0.06,0.07H128.33z"/>
		<path class="st1" d="M129.68,10.5c0,0.06-0.05,0.1-0.1,0.1h-0.34c-0.06,0-0.1-0.05-0.1-0.1v-0.34c0-0.05,0.04-0.1,0.1-0.1h0.34
			c0.06,0,0.1,0.05,0.1,0.1V10.5z M129.6,14.52c0,0.07-0.04,0.13-0.13,0.13h-0.13c-0.09,0-0.13-0.06-0.13-0.13v-2.99
			c0-0.07,0.04-0.13,0.13-0.13h0.13c0.09,0,0.13,0.06,0.13,0.13V14.52z"/>
		<path class="st1" d="M132.62,12.44h-0.12c-0.07,0-0.13-0.04-0.13-0.14c0-0.32-0.29-0.6-0.74-0.6c-0.46,0-0.75,0.26-0.75,0.53
			c0,0.36,0.4,0.43,0.72,0.49c0.55,0.1,1.28,0.27,1.28,0.99c0,0.55-0.49,1.01-1.25,1.01c-0.65,0-1.25-0.39-1.25-1.04v-0.08
			c0-0.07,0.06-0.13,0.13-0.13h0.12c0.07,0,0.13,0.06,0.13,0.13v0.08c0,0.39,0.39,0.66,0.87,0.66c0.53,0,0.86-0.28,0.86-0.63
			c0-0.41-0.5-0.54-0.9-0.6c-0.57-0.08-1.11-0.28-1.11-0.88c0-0.51,0.55-0.9,1.14-0.9c0.58,0,1.12,0.36,1.12,0.97
			C132.75,12.4,132.69,12.44,132.62,12.44z"/>
		<path class="st1" d="M135.71,13.48h0.14c0.07,0,0.13,0.06,0.13,0.13c0,0.59-0.49,1.11-1.22,1.11c-0.78,0-1.26-0.55-1.31-1.23
			c-0.02-0.26-0.02-0.65,0-0.91c0.05-0.68,0.53-1.23,1.31-1.23c0.73,0,1.22,0.52,1.22,1.1c0,0.07-0.04,0.13-0.11,0.13h-0.15
			c-0.06,0-0.12-0.03-0.12-0.1c0-0.39-0.31-0.75-0.84-0.75c-0.65,0-0.88,0.51-0.92,0.85c-0.03,0.27-0.03,0.64,0,0.91
			c0.03,0.34,0.27,0.85,0.92,0.85c0.57,0,0.83-0.4,0.83-0.74C135.58,13.5,135.65,13.48,135.71,13.48z"/>
		<path class="st1" d="M138.71,12.46c0-0.44-0.33-0.75-0.79-0.75c-0.47,0-0.79,0.31-0.79,0.71v2.09c0,0.07-0.06,0.13-0.13,0.13
			h-0.12c-0.07,0-0.13-0.06-0.13-0.13v-4.34c0-0.07,0.06-0.13,0.13-0.13h0.12c0.07,0,0.13,0.06,0.13,0.13v1.18
			c0,0.06,0.05,0.14,0.14,0.14c0.13,0,0.31-0.16,0.7-0.16c0.68,0,1.13,0.52,1.13,1.13v2.05c0,0.07-0.06,0.13-0.13,0.13h-0.12
			c-0.07,0-0.13-0.06-0.13-0.13V12.46z"/>
		<path class="st1" d="M140.22,13.18c-0.04,0-0.06,0.03-0.06,0.06c0,0.62,0.29,1.09,0.96,1.09c0.5,0,0.77-0.31,0.87-0.61
			c0.03-0.08,0.09-0.11,0.15-0.11h0.13c0.07,0,0.12,0.04,0.11,0.13c-0.08,0.57-0.58,0.98-1.26,0.98c-0.78,0-1.28-0.55-1.33-1.23
			c-0.02-0.26-0.02-0.65,0-0.91c0.05-0.68,0.55-1.23,1.33-1.23c0.73,0,1.3,0.59,1.3,1.3v0.42c0,0.07-0.06,0.13-0.13,0.13H140.22z
			 M140.17,12.75c0,0.04,0.03,0.06,0.06,0.06h1.76c0.04,0,0.06-0.03,0.06-0.06c0-0.66-0.4-1.03-0.94-1.03
			C140.54,11.71,140.17,12.08,140.17,12.75z"/>
		<path class="st1" d="M61.44,21.9h-0.36c-0.06,0-0.11-0.03-0.12-0.1l-0.88-4.32c-0.01-0.07,0.03-0.13,0.13-0.13h0.16
			c0.06,0,0.11,0.03,0.12,0.1l0.73,3.72c0.01,0.03,0.02,0.04,0.04,0.04h0.01c0.02,0,0.03-0.01,0.04-0.04l0.69-3.72
			c0.01-0.06,0.07-0.1,0.12-0.1h0.22c0.06,0,0.11,0.03,0.12,0.1l0.74,3.72c0.01,0.03,0.02,0.04,0.04,0.04h0.01
			c0.02,0,0.03-0.01,0.04-0.04l0.79-3.72c0.01-0.07,0.07-0.1,0.12-0.1h0.16c0.1,0,0.14,0.06,0.13,0.13l-0.94,4.32
			c-0.01,0.06-0.07,0.1-0.12,0.1h-0.36c-0.06,0-0.11-0.03-0.12-0.1l-0.68-3.47c-0.01-0.03-0.04-0.03-0.05,0l-0.64,3.47
			C61.55,21.86,61.5,21.9,61.44,21.9z"/>
		<path class="st1" d="M65.57,17.75c0,0.06-0.05,0.1-0.1,0.1h-0.34c-0.06,0-0.1-0.05-0.1-0.1V17.4c0-0.05,0.04-0.1,0.1-0.1h0.34
			c0.06,0,0.1,0.05,0.1,0.1V17.75z M65.5,21.77c0,0.07-0.04,0.13-0.13,0.13h-0.13c-0.09,0-0.13-0.06-0.13-0.13v-2.99
			c0-0.07,0.04-0.13,0.13-0.13h0.13c0.09,0,0.13,0.06,0.13,0.13V21.77z"/>
		<path class="st1" d="M68.51,19.69h-0.12c-0.07,0-0.13-0.04-0.13-0.14c0-0.32-0.29-0.6-0.74-0.6c-0.46,0-0.75,0.26-0.75,0.53
			c0,0.36,0.4,0.43,0.72,0.49c0.55,0.1,1.28,0.27,1.28,0.99c0,0.55-0.49,1.01-1.25,1.01c-0.65,0-1.25-0.39-1.25-1.04v-0.08
			c0-0.07,0.06-0.13,0.13-0.13h0.12c0.07,0,0.13,0.06,0.13,0.13v0.08c0,0.39,0.39,0.66,0.87,0.66c0.53,0,0.86-0.28,0.86-0.63
			c0-0.41-0.5-0.54-0.9-0.6c-0.57-0.08-1.11-0.28-1.11-0.88c0-0.51,0.55-0.9,1.14-0.9c0.58,0,1.12,0.36,1.12,0.97
			C68.64,19.65,68.58,19.69,68.51,19.69z"/>
		<path class="st1" d="M71.5,19.69h-0.12c-0.07,0-0.13-0.04-0.13-0.14c0-0.32-0.29-0.6-0.74-0.6s-0.75,0.26-0.75,0.53
			c0,0.36,0.4,0.43,0.72,0.49c0.55,0.1,1.28,0.27,1.28,0.99c0,0.55-0.49,1.01-1.25,1.01c-0.65,0-1.25-0.39-1.25-1.04v-0.08
			c0-0.07,0.06-0.13,0.13-0.13h0.12c0.07,0,0.13,0.06,0.13,0.13v0.08c0,0.39,0.39,0.66,0.87,0.66c0.53,0,0.86-0.28,0.86-0.63
			c0-0.41-0.5-0.54-0.9-0.6c-0.57-0.08-1.11-0.28-1.11-0.88c0-0.51,0.55-0.9,1.14-0.9c0.58,0,1.12,0.36,1.12,0.97
			C71.63,19.65,71.57,19.69,71.5,19.69z"/>
		<path class="st1" d="M72.76,20.43c-0.04,0-0.06,0.03-0.06,0.07c0,0.62,0.29,1.09,0.96,1.09c0.5,0,0.77-0.31,0.87-0.61
			c0.03-0.08,0.09-0.11,0.15-0.11h0.13c0.07,0,0.12,0.04,0.11,0.13c-0.08,0.57-0.58,0.98-1.26,0.98c-0.78,0-1.28-0.55-1.33-1.23
			c-0.02-0.26-0.02-0.65,0-0.91c0.05-0.68,0.55-1.23,1.33-1.23c0.73,0,1.3,0.59,1.3,1.3v0.42c0,0.07-0.06,0.13-0.13,0.13H72.76z
			 M72.71,20c0,0.04,0.03,0.06,0.06,0.06h1.76c0.04,0,0.06-0.03,0.06-0.06c0-0.66-0.4-1.03-0.94-1.03
			C73.08,18.96,72.71,19.33,72.71,20z"/>
		<path class="st1" d="M78.09,21.77c0,0.07-0.06,0.13-0.13,0.13h-0.12c-0.07,0-0.13-0.06-0.13-0.13v-2.05
			c0-0.55-0.36-0.75-0.83-0.75c-0.47,0-0.83,0.31-0.83,0.71v2.09c0,0.07-0.06,0.13-0.13,0.13h-0.12c-0.07,0-0.13-0.06-0.13-0.13
			v-2.99c0-0.07,0.06-0.13,0.13-0.13h0.1c0.04,0,0.07,0.02,0.09,0.05c0.04,0.05,0.08,0.1,0.16,0.1c0.19,0,0.29-0.21,0.77-0.21
			c0.68,0,1.16,0.39,1.16,1.13V21.77z"/>
		<path class="st1" d="M80.94,19.69h-0.12c-0.07,0-0.13-0.04-0.13-0.14c0-0.32-0.29-0.6-0.74-0.6c-0.46,0-0.75,0.26-0.75,0.53
			c0,0.36,0.4,0.43,0.72,0.49c0.55,0.1,1.28,0.27,1.28,0.99c0,0.55-0.49,1.01-1.25,1.01c-0.65,0-1.25-0.39-1.25-1.04v-0.08
			c0-0.07,0.06-0.13,0.13-0.13h0.12c0.07,0,0.13,0.06,0.13,0.13v0.08c0,0.39,0.39,0.66,0.87,0.66c0.53,0,0.86-0.28,0.86-0.63
			c0-0.41-0.5-0.54-0.9-0.6c-0.57-0.08-1.11-0.28-1.11-0.88c0-0.51,0.55-0.9,1.14-0.9c0.58,0,1.12,0.36,1.12,0.97
			C81.07,19.65,81.01,19.69,80.94,19.69z"/>
		<path class="st1" d="M84.03,20.73h0.14c0.07,0,0.13,0.06,0.13,0.13c0,0.59-0.49,1.1-1.22,1.1c-0.78,0-1.26-0.55-1.31-1.23
			c-0.02-0.26-0.02-0.65,0-0.91c0.05-0.68,0.53-1.23,1.31-1.23c0.73,0,1.22,0.52,1.22,1.11c0,0.07-0.04,0.13-0.11,0.13h-0.15
			c-0.06,0-0.12-0.03-0.12-0.1c0-0.39-0.31-0.75-0.84-0.75c-0.65,0-0.88,0.51-0.92,0.85c-0.03,0.27-0.03,0.64,0,0.91
			c0.03,0.34,0.27,0.85,0.92,0.85c0.57,0,0.83-0.4,0.83-0.74C83.9,20.75,83.97,20.73,84.03,20.73z"/>
		<path class="st1" d="M87.03,19.71c0-0.44-0.32-0.75-0.79-0.75c-0.47,0-0.79,0.31-0.79,0.71v2.09c0,0.07-0.06,0.13-0.13,0.13h-0.12
			c-0.07,0-0.13-0.06-0.13-0.13v-4.34c0-0.07,0.06-0.13,0.13-0.13h0.12c0.07,0,0.13,0.06,0.13,0.13v1.18c0,0.06,0.05,0.14,0.14,0.14
			c0.13,0,0.31-0.16,0.7-0.16c0.68,0,1.13,0.52,1.13,1.13v2.05c0,0.07-0.06,0.13-0.13,0.13h-0.12c-0.07,0-0.13-0.06-0.13-0.13V19.71
			z"/>
		<path class="st1" d="M88.6,19.51c0,0.11-0.09,0.11-0.15,0.11h-0.09c-0.1,0-0.13-0.05-0.13-0.13c0-0.6,0.58-0.91,1.13-0.91
			c0.64,0,1.17,0.34,1.17,1.08v2.11c0,0.07-0.06,0.13-0.13,0.13h-0.06c-0.04,0-0.07-0.01-0.09-0.05c-0.03-0.05-0.04-0.14-0.13-0.14
			c-0.12,0-0.38,0.25-0.86,0.25c-0.8,0-1.18-0.49-1.18-1.04c0-0.54,0.39-0.95,1.07-0.95h0.93c0.04,0,0.07-0.03,0.07-0.07v-0.25
			c0-0.42-0.33-0.71-0.79-0.71C88.97,18.94,88.6,19.17,88.6,19.51z M89.16,20.33c-0.36,0-0.69,0.2-0.69,0.59
			c0,0.46,0.36,0.68,0.77,0.68c0.6,0,0.94-0.29,0.94-0.81v-0.39c0-0.04-0.03-0.07-0.07-0.07H89.16z"/>
		<path class="st1" d="M92.93,17.66c-0.49,0-0.72,0.4-0.72,0.85v0.1c0,0.04,0.03,0.06,0.07,0.06h0.74c0.07,0,0.13,0.06,0.13,0.13
			v0.12c0,0.07-0.06,0.13-0.13,0.13h-0.74c-0.04,0-0.07,0.03-0.07,0.06v2.64c0,0.07-0.06,0.13-0.13,0.13h-0.13
			c-0.07,0-0.13-0.06-0.13-0.13v-2.64c0-0.04-0.03-0.06-0.07-0.06H91.2c-0.07,0-0.13-0.06-0.13-0.13v-0.12
			c0-0.07,0.06-0.13,0.13-0.13h0.57c0.04,0,0.07-0.03,0.07-0.06v-0.1c0-0.73,0.46-1.22,1.11-1.22h0.03c0.07,0,0.13,0.06,0.13,0.13
			v0.1c0,0.07-0.06,0.13-0.13,0.13H92.93z"/>
		<path class="st1" d="M95.48,18.68c0.07,0,0.13,0.06,0.13,0.13v0.12c0,0.07-0.06,0.13-0.13,0.13h-0.82c-0.04,0-0.06,0.03-0.06,0.06
			v1.73c0,0.46,0.16,0.68,0.62,0.68h0.33c0.07,0,0.13,0.06,0.13,0.13v0.1c0,0.07-0.06,0.13-0.13,0.13h-0.33
			c-0.68,0-1.01-0.29-1.01-1.04v-1.73c0-0.04-0.03-0.06-0.06-0.06h-0.53c-0.07,0-0.13-0.06-0.13-0.13v-0.12
			c0-0.07,0.06-0.13,0.13-0.13h0.53c0.04,0,0.06-0.03,0.06-0.06V17.6c0-0.07,0.06-0.13,0.13-0.13h0.13c0.07,0,0.13,0.06,0.13,0.13
			v1.01c0,0.04,0.03,0.06,0.06,0.06H95.48z"/>
		<path class="st1" d="M96.59,20.43c-0.04,0-0.06,0.03-0.06,0.07c0,0.62,0.29,1.09,0.96,1.09c0.5,0,0.77-0.31,0.87-0.61
			c0.03-0.08,0.09-0.11,0.15-0.11h0.13c0.07,0,0.12,0.04,0.11,0.13c-0.08,0.57-0.58,0.98-1.26,0.98c-0.78,0-1.28-0.55-1.33-1.23
			c-0.02-0.26-0.02-0.65,0-0.91c0.05-0.68,0.55-1.23,1.33-1.23c0.73,0,1.3,0.59,1.3,1.3v0.42c0,0.07-0.06,0.13-0.13,0.13H96.59z
			 M96.54,20c0,0.04,0.03,0.06,0.06,0.06h1.76c0.04,0,0.06-0.03,0.06-0.06c0-0.66-0.4-1.03-0.94-1.03
			C96.91,18.96,96.54,19.33,96.54,20z"/>
		<path class="st1" d="M101.93,21.77c0,0.07-0.06,0.13-0.13,0.13h-0.12c-0.07,0-0.13-0.06-0.13-0.13v-2.05
			c0-0.55-0.36-0.75-0.83-0.75c-0.47,0-0.83,0.31-0.83,0.71v2.09c0,0.07-0.06,0.13-0.13,0.13h-0.12c-0.07,0-0.13-0.06-0.13-0.13
			v-2.99c0-0.07,0.06-0.13,0.13-0.13h0.1c0.04,0,0.07,0.02,0.09,0.05c0.04,0.05,0.08,0.1,0.16,0.1c0.19,0,0.29-0.21,0.77-0.21
			c0.68,0,1.16,0.39,1.16,1.13V21.77z"/>
	</g>
</g>
</svg>
