<?xml version="1.0" encoding="UTF-8" standalone="no"?>
<!-- Created with Inkscape (http://www.inkscape.org/) -->

<svg
   xmlns:dc="http://purl.org/dc/elements/1.1/"
   xmlns:cc="http://creativecommons.org/ns#"
   xmlns:rdf="http://www.w3.org/1999/02/22-rdf-syntax-ns#"
   xmlns:svg="http://www.w3.org/2000/svg"
   xmlns="http://www.w3.org/2000/svg"
   xmlns:sodipodi="http://sodipodi.sourceforge.net/DTD/sodipodi-0.dtd"
   xmlns:inkscape="http://www.inkscape.org/namespaces/inkscape"
   width="210mm"
   height="297mm"
   viewBox="0 0 210 297"
   version="1.1"
   id="svg1065"
   inkscape:version="0.92.4 (5da689c313, 2019-01-14)"
   sodipodi:docname="important!.svg">
  <defs
     id="defs1059" />
  <sodipodi:namedview
     id="base"
     pagecolor="#ffffff"
     bordercolor="#666666"
     borderopacity="1.0"
     inkscape:pageopacity="0.0"
     inkscape:pageshadow="2"
     inkscape:zoom="0.7"
     inkscape:cx="180.56919"
     inkscape:cy="461.04281"
     inkscape:document-units="mm"
     inkscape:current-layer="g1739"
     showgrid="false"
     inkscape:window-width="1920"
     inkscape:window-height="1017"
     inkscape:window-x="-8"
     inkscape:window-y="-8"
     inkscape:window-maximized="1" />
  <metadata
     id="metadata1062">
    <rdf:RDF>
      <cc:Work
         rdf:about="">
        <dc:format>image/svg+xml</dc:format>
        <dc:type
           rdf:resource="http://purl.org/dc/dcmitype/StillImage" />
        <dc:title></dc:title>
      </cc:Work>
    </rdf:RDF>
  </metadata>
  <g
     inkscape:label="Layer 1"
     inkscape:groupmode="layer"
     id="layer1">
    <g
       id="g1739"
       transform="matrix(0.26458333,0,0,0.26458333,7.3013595,37.832258)">
      <path
         id="path1612"
         d="m 214.31037,75.304716 a 47.96791,47.96791 0 0 0 -47.91332,47.913324 v 551.98975 a 47.96778,47.96778 0 0 0 47.91332,47.91272 h 404.92466 a 47.96766,47.96766 0 0 0 47.91272,-47.91272 V 123.218 A 47.96778,47.96778 0 0 0 619.23503,75.304716 Z"
         inkscape:connector-curvature="0"
         style="fill:#3f3d56" />
      <rect
         id="rect1614"
         height="579.75262"
         width="450.9187"
         y="109.33627"
         x="191.31305"
         style="fill:#ffffff" />
      <rect
         id="rect1616"
         height="21.87746"
         width="333.02353"
         y="213.2542"
         x="250.26064"
         style="fill:#000" />
      <rect
         id="rect1618"
         height="21.87746"
         width="333.02353"
         y="271.59409"
         x="250.26064"
         style="fill:#000" />
      <rect
         id="rect1620"
         height="21.87746"
         width="333.02353"
         y="329.93396"
         x="250.26064"
         style="fill:#000" />
      <rect
         id="rect1622"
         height="21.87746"
         width="333.02353"
         y="388.27386"
         x="250.26064"
         style="fill:#000" />
      <rect
         id="rect1624"
         height="21.87746"
         width="333.02353"
         y="446.61374"
         x="250.26064"
         style="fill:#000" />
      <rect
         id="rect1626"
         height="21.87746"
         width="333.02353"
         y="504.95364"
         x="250.26064"
         style="fill:#000" />
      <rect
         id="rect1628"
         height="21.87746"
         width="333.02353"
         y="563.29352"
         x="250.26064"
         style="fill:#000" />
      <rect
         id="rect1630"
         transform="rotate(-10.37053)"
         height="431.62448"
         width="335.70795"
         y="177.23283"
         x="229.59448"
         style="fill:#e6e6e6" />
      <rect
         id="rect1632"
         transform="rotate(-10.37053)"
         height="16.28772"
         width="247.93524"
         y="254.59949"
         x="273.48083"
         style="fill:#000" />
      <rect
         id="rect1634"
         transform="rotate(-10.37053)"
         height="16.28772"
         width="247.93524"
         y="298.03339"
         x="273.48083"
         style="fill:#000" />
      <rect
         id="rect1636"
         transform="rotate(-10.37053)"
         height="16.28772"
         width="247.93524"
         y="341.46732"
         x="273.4808"
         style="fill:#000" />
      <rect
         id="rect1638"
         transform="rotate(-10.37053)"
         height="16.28772"
         width="247.93524"
         y="384.90121"
         x="273.4808"
         style="fill:#000" />
      <rect
         id="rect1640"
         transform="rotate(-10.370392)"
         height="16.287643"
         width="247.93408"
         y="428.33344"
         x="273.47903"
         style="fill:#000;stroke-width:0.99999529" />
      <rect
         id="rect1642"
         transform="rotate(-10.37053)"
         height="16.28772"
         width="247.93524"
         y="471.76904"
         x="273.4808"
         style="fill:#000" />
      <rect
         id="rect1644"
         transform="rotate(-10.37053)"
         height="16.28772"
         width="247.93524"
         y="515.20294"
         x="273.48083"
         style="fill:#000" />
      <path
         id="path1662"
         d="m 500.26278,47.350146 h -39.73546 v -8.13468 a 22.25068,22.25068 0 0 0 -22.25068,-22.25068 h -43.00848 a 22.25067,22.25067 0 0 0 -22.25065,22.25068 v 8.13468 h -39.73548 a 22.25067,22.25067 0 0 0 -22.25067,22.25068 V 131.21372 H 522.51345 V 69.600826 a 22.25067,22.25067 0 0 0 -22.25067,-22.25068 z"
         inkscape:connector-curvature="0"
         style="fill:#3f3d56" />
      <path
         id="path1664"
         d="m 402.50867,646.92972 c 6.5698,-4.49614 13.32206,-9.17218 21.12382,-11.21592 7.11815,-1.86465 15.29169,-1.37138 20.92177,3.84062 4.54356,4.20617 6.46192,10.671 3.09554,16.20474 a 10.29789,10.29789 0 0 1 -6.82246,4.96408 8.21862,8.21862 0 0 1 -7.38872,-2.88661 c -1.7651,-1.95045 -2.82116,-4.83323 -1.88322,-7.40419 0.98627,-2.70345 3.62463,-4.3568 6.21589,-5.27948 a 46.00407,46.00407 0 0 1 9.27017,-1.915 l 12.89241,-1.76494 52.76891,-7.22392 58.76538,-8.04482 a 1.83592,1.83592 0 0 0 1.27334,-2.24265 1.87009,1.87009 0 0 0 -2.24265,-1.27334 L 453.56773,638.6958 c -4.2295,0.579 -8.51865,0.99359 -12.70418,1.84428 a 21.363,21.363 0 0 0 -9.12184,3.7888 c -5.60138,4.43473 -5.20124,12.27858 -0.0466,16.918 5.21814,4.69652 12.78382,3.888 17.36291,-1.29921 a 15.74343,15.74343 0 0 0 1.19385,-19.291 c -4.99863,-7.53725 -14.10711,-10.43294 -22.81019,-9.36395 -10.06518,1.23628 -18.59831,6.89386 -26.77333,12.48856 -1.92477,1.31724 -0.103,4.47836 1.84033,3.14842 z"
         inkscape:connector-curvature="0"
         style="fill:#3f3d56" />
    </g>
  </g>
</svg>
